<svg width="202" height="50" viewBox="0 0 202 50" fill="none" xmlns="http://www.w3.org/2000/svg">
<path d="M200.372 28.2483C200.321 29.0944 200.269 29.9534 200.218 30.8252C200.167 31.6713 200.026 32.4918 199.796 33.2867C199.591 34.0816 199.258 34.7995 198.797 35.4406C198.362 36.0816 197.735 36.5944 196.916 36.979C196.199 37.338 195.431 37.5816 194.611 37.7098C193.792 37.8636 192.973 37.9277 192.154 37.9021C191.334 37.8765 190.541 37.7483 189.773 37.5175C189.005 37.3124 188.313 37.0175 187.699 36.6329C187.084 36.2483 186.585 35.7483 186.201 35.1329C185.817 34.5175 185.51 33.8508 185.279 33.1329C185.075 32.4149 184.934 31.6713 184.857 30.9021C184.78 30.1329 184.729 29.4149 184.703 28.7483C184.601 26.979 184.601 25.2354 184.703 23.5175C184.703 23.1842 184.703 22.8124 184.703 22.4021C184.703 21.9662 184.729 21.5431 184.78 21.1329C184.857 20.7226 184.972 20.3508 185.126 20.0175C185.279 19.6585 185.535 19.3893 185.894 19.2098C186.662 18.7995 187.366 18.7739 188.006 19.1329C188.672 19.4918 189.069 20.2354 189.197 21.3636C189.273 21.9534 189.299 22.6072 189.273 23.3252C189.273 24.0431 189.299 24.697 189.35 25.2867C189.376 26.1585 189.401 27.1072 189.427 28.1329C189.453 29.1329 189.593 30.0303 189.849 30.8252C190.131 31.6201 190.579 32.2226 191.194 32.6329C191.834 33.0175 192.781 33.0303 194.035 32.6713C194.624 32.4918 195.008 32.0431 195.187 31.3252C195.392 30.6072 195.495 29.5431 195.495 28.1329C195.495 27.5175 195.482 26.838 195.456 26.0944C195.431 25.3508 195.418 24.6201 195.418 23.9021C195.418 23.1585 195.431 22.479 195.456 21.8636C195.507 21.2226 195.584 20.7354 195.687 20.4021C195.815 19.9406 196.083 19.5944 196.493 19.3636C196.903 19.1329 197.338 19.0175 197.799 19.0175C198.26 18.9918 198.695 19.0816 199.105 19.2867C199.514 19.4918 199.796 19.8252 199.949 20.2867C200.103 20.697 200.205 21.2226 200.257 21.8636C200.333 22.479 200.385 23.1585 200.41 23.9021C200.436 24.6201 200.436 25.3636 200.41 26.1329C200.41 26.8765 200.397 27.5816 200.372 28.2483Z" fill="black"/>
<path d="M168.24 20.0174C169.085 19.6071 169.969 19.3122 170.89 19.1328C171.812 18.9533 172.721 18.9148 173.617 19.0174C174.539 19.1199 175.422 19.3635 176.267 19.7481C177.137 20.1328 177.931 20.6712 178.648 21.3635C179.237 21.9533 179.749 22.6712 180.184 23.5174C180.619 24.3379 180.939 25.1456 181.144 25.9404C181.579 27.3507 181.643 28.7738 181.336 30.2097C181.029 31.6456 180.504 32.9789 179.761 34.2097C179.403 34.7738 178.955 35.2866 178.417 35.7481C177.905 36.184 177.355 36.543 176.766 36.8251C175.998 37.184 175.166 37.4276 174.27 37.5558C173.374 37.7097 172.503 37.7481 171.658 37.6712C170.122 37.5943 168.765 37.2097 167.588 36.5174C166.436 35.8251 165.501 34.9404 164.784 33.8635C164.093 32.7866 163.632 31.5687 163.402 30.2097C163.197 28.8251 163.286 27.4148 163.67 25.9789C164.08 24.4404 164.669 23.1969 165.437 22.2481C166.231 21.2738 167.165 20.5302 168.24 20.0174ZM169.393 25.1712C169.009 25.5302 168.714 25.9789 168.509 26.5174C168.304 27.0558 168.176 27.6199 168.125 28.2097C168.074 28.7738 168.112 29.3507 168.24 29.9404C168.394 30.5045 168.624 31.0174 168.932 31.4789C169.188 31.8635 169.649 32.184 170.314 32.4404C170.98 32.6969 171.671 32.8507 172.388 32.902C173.207 32.9533 173.924 32.7353 174.539 32.2481C175.153 31.7353 175.614 31.1071 175.921 30.3635C176.254 29.6199 176.408 28.8122 176.382 27.9404C176.356 27.0687 176.126 26.2738 175.691 25.5558C175.383 25.043 174.948 24.6712 174.385 24.4404C173.847 24.184 173.271 24.0558 172.657 24.0558C172.068 24.0302 171.479 24.1199 170.89 24.3251C170.301 24.5046 169.802 24.7866 169.393 25.1712Z" fill="black"/>
<path d="M164.671 11.8251C164.696 11.9533 164.696 12.0815 164.671 12.2097C164.671 12.338 164.632 12.479 164.556 12.6328C164.453 12.9918 164.338 13.3123 164.21 13.5944C164.056 13.9533 163.864 14.261 163.634 14.5174C163.531 14.6713 163.429 14.8251 163.327 14.979C163.25 15.1072 163.173 15.2354 163.096 15.3636L162.597 16.0174L157.681 23.1328L156.798 24.2482V34.479C156.747 34.6072 156.721 34.7354 156.721 34.8636C156.721 34.9918 156.708 35.1328 156.683 35.2867C156.632 35.4149 156.593 35.5431 156.568 35.6713C156.542 35.7738 156.504 35.8892 156.452 36.0174C156.401 36.12 156.376 36.1969 156.376 36.2482C156.35 36.2995 156.324 36.338 156.299 36.3636C156.299 36.3892 156.286 36.4277 156.26 36.479C156.107 36.7354 155.889 36.9662 155.608 37.1713C155.044 37.4533 154.404 37.5174 153.687 37.3636C153.278 37.3123 152.971 37.1841 152.766 36.979C152.638 36.9021 152.535 36.8123 152.459 36.7097C152.382 36.6072 152.305 36.4918 152.228 36.3636C152.177 36.2097 152.126 36.0687 152.075 35.9405C152.023 35.8123 151.985 35.6841 151.959 35.5559C151.908 35.4277 151.883 35.3123 151.883 35.2097C151.883 35.0815 151.883 34.9662 151.883 34.8636V24.3636L151.038 23.0559L146.045 15.979L145.623 15.2867C145.469 15.0559 145.277 14.7867 145.047 14.479C144.842 14.1969 144.663 13.8892 144.509 13.5559C144.407 13.4021 144.317 13.2482 144.24 13.0944C144.189 12.9149 144.138 12.7354 144.087 12.5559C144.01 12.2995 143.997 12.0431 144.048 11.7867C144.125 11.4533 144.279 11.1713 144.509 10.9405C144.765 10.7097 145.034 10.5303 145.316 10.4021C145.674 10.1456 146.084 10.0431 146.544 10.0944C146.826 10.0944 147.069 10.1456 147.274 10.2482C147.479 10.3508 147.684 10.4662 147.889 10.5944C148.119 10.7738 148.337 10.9662 148.541 11.1713C148.772 11.3764 148.977 11.5944 149.156 11.8251C149.361 12.0815 149.553 12.3251 149.732 12.5559C149.911 12.761 150.09 13.0046 150.27 13.2867L150.385 13.4405C150.999 14.261 151.575 15.0559 152.113 15.8251C152.651 16.5687 153.214 17.3764 153.803 18.2482C153.854 18.2995 153.931 18.4021 154.033 18.5559C154.135 18.7097 154.251 18.8892 154.379 19.0944C154.481 18.9149 154.571 18.761 154.648 18.6328C154.75 18.479 154.827 18.3764 154.878 18.3251C155.467 17.4533 156.03 16.6328 156.568 15.8636C157.105 15.0944 157.681 14.2995 158.296 13.479L158.373 13.3251C158.577 13.0944 158.757 12.8636 158.91 12.6328C159.089 12.3764 159.281 12.12 159.486 11.8636C159.819 11.4021 160.267 11.0046 160.83 10.6713C161.24 10.3892 161.662 10.2097 162.098 10.1328C162.584 10.0815 163.007 10.1841 163.365 10.4405C163.519 10.5431 163.659 10.6328 163.787 10.7097C163.941 10.7867 164.069 10.8764 164.171 10.979C164.376 11.2097 164.543 11.4918 164.671 11.8251Z" fill="#D22F2F"/>
<path d="M125.184 23.6713C125.184 23.0816 125.172 22.4534 125.146 21.7867C125.146 21.12 125.261 20.5175 125.492 19.979C125.696 19.4918 126.029 19.1457 126.49 18.9405C126.976 18.7098 127.45 18.6585 127.911 18.7867C128.372 18.8636 128.73 19.0046 128.986 19.2098C129.242 19.4149 129.421 19.6585 129.524 19.9405C129.652 20.197 129.729 20.5046 129.754 20.8636C129.78 21.197 129.806 21.5303 129.831 21.8636C130.087 21.4021 130.407 21.0303 130.791 20.7482C131.175 20.4662 131.572 20.2354 131.982 20.0559C132.391 19.8764 132.775 19.7482 133.134 19.6713C133.518 19.5944 133.812 19.5559 134.017 19.5559C134.99 19.5559 135.95 19.7739 136.897 20.2098C137.87 20.62 138.677 21.2098 139.317 21.979C139.675 22.4405 139.944 22.9277 140.123 23.4405C140.328 23.9277 140.469 24.4405 140.546 24.979C140.648 25.5175 140.712 26.0688 140.738 26.6329C140.763 27.1713 140.789 27.7226 140.814 28.2867C140.942 29.9277 140.942 31.5559 140.814 33.1713C140.789 33.5046 140.776 33.8893 140.776 34.3252C140.776 34.7611 140.738 35.197 140.661 35.6329C140.61 36.0431 140.494 36.4149 140.315 36.7482C140.162 37.0559 139.893 37.2482 139.509 37.3252C138.971 37.4534 138.523 37.479 138.165 37.4021C137.832 37.3508 137.563 37.2354 137.358 37.0559C137.153 36.8764 137 36.6457 136.897 36.3636C136.795 36.0816 136.705 35.7611 136.628 35.4021C136.577 35.12 136.526 34.7995 136.475 34.4405C136.449 34.0559 136.424 33.6713 136.398 33.2867C136.398 32.9021 136.385 32.5303 136.36 32.1713C136.36 31.7867 136.36 31.4405 136.36 31.1329C136.36 30.6457 136.347 30.1072 136.321 29.5175C136.296 28.9277 136.296 28.3764 136.321 27.8636C136.321 26.6585 136.001 25.7482 135.361 25.1329C134.747 24.4918 133.902 24.2226 132.827 24.3252C132.007 24.4277 131.29 24.7611 130.676 25.3252C130.062 25.8636 129.767 26.5687 129.793 27.4405C129.793 27.7739 129.793 28.0816 129.793 28.3636C129.793 28.6457 129.78 28.9277 129.754 29.2098C129.754 29.4918 129.754 29.7995 129.754 30.1329C129.754 30.4662 129.754 30.838 129.754 31.2482C129.754 32.0944 129.754 32.9918 129.754 33.9405C129.754 34.8636 129.639 35.62 129.409 36.2098C129.204 36.8252 128.858 37.2482 128.372 37.479C127.885 37.7098 127.309 37.6457 126.644 37.2867C126.362 37.1329 126.132 36.9277 125.952 36.6713C125.799 36.3893 125.671 36.0944 125.568 35.7867C125.492 35.479 125.44 35.1713 125.415 34.8636C125.389 34.5303 125.364 34.2226 125.338 33.9405C125.261 33.0944 125.21 32.3123 125.184 31.5944C125.184 30.8508 125.184 30.0559 125.184 29.2098V23.6713Z" fill="black"/>
<path d="M108.798 10.7867C109.643 10.3764 110.526 10.0815 111.448 9.90204C112.37 9.72255 113.279 9.68409 114.175 9.78666C115.096 9.88922 115.98 10.1328 116.824 10.5174C117.695 10.902 118.489 11.4405 119.205 12.1328C119.794 12.7226 120.306 13.4405 120.742 14.2867C121.177 15.1072 121.497 15.9149 121.702 16.7097C122.137 18.12 122.201 29.5431 121.894 30.979C121.586 32.4149 121.062 33.7482 120.319 34.979C119.961 35.5431 119.513 36.0559 118.975 36.5174C118.463 36.9533 117.913 37.3123 117.324 37.5943C116.556 37.9533 115.724 38.1969 114.827 38.3251C113.931 38.479 113.061 38.5174 112.216 38.4405C110.68 38.3636 109.323 37.979 108.145 37.2867C106.993 36.5943 106.059 35.7097 105.342 34.6328C104.651 33.5559 104.19 32.3379 103.959 30.979C103.755 29.5944 103.844 18.1841 104.228 16.7482C104.638 15.2097 105.227 13.9661 105.995 13.0174C106.788 12.0431 107.723 11.2995 108.798 10.7867ZM109.95 15.9405C109.566 16.2995 109.272 16.7482 109.067 17.2867C108.862 17.8251 108.734 28.3892 108.683 28.979C108.632 29.5431 108.67 30.12 108.798 30.7097C108.952 31.2738 109.182 31.7867 109.489 32.2482C109.745 32.6328 110.206 32.9533 110.872 33.2097C111.538 33.4661 112.229 33.62 112.946 33.6713C113.765 33.7226 114.482 33.5046 115.096 33.0174C115.711 32.5046 116.172 31.8764 116.479 31.1328C116.812 30.3892 116.965 19.5815 116.94 18.7097C116.914 17.8379 116.684 17.0431 116.248 16.3251C115.941 15.8123 115.506 15.4405 114.943 15.2097C114.405 14.9533 113.829 14.8251 113.215 14.8251C112.626 14.7995 112.037 14.8892 111.448 15.0944C110.859 15.2738 110.36 15.5559 109.95 15.9405Z" fill="#D22F2F"/>
<path d="M87.4965 10.0174C88.3414 9.60711 89.2247 9.31224 90.1464 9.13275C91.068 8.95327 91.9769 8.91481 92.873 9.01737C93.7946 9.11993 94.6779 9.36352 95.5228 9.74814C96.3932 10.1328 97.1869 10.6712 97.9038 11.3635C98.4926 11.9533 99.0047 12.6712 99.4399 13.5174C99.8751 14.3379 100.195 15.1456 100.4 15.9404C100.835 17.3507 100.899 29.543 100.592 30.9789C100.285 32.4148 99.7599 33.7481 99.0175 34.9789C98.659 35.543 98.211 36.0558 97.6733 36.5174C97.1613 36.9533 96.6109 37.3122 96.022 37.5943C95.254 37.9533 94.4219 38.1969 93.5258 38.3251C92.6298 38.4789 91.7593 38.5174 90.9144 38.4404C89.3783 38.3635 88.0214 37.9789 86.8437 37.2866C85.6916 36.5943 84.7571 35.7097 84.0403 34.6328C83.349 33.5558 82.8882 32.3379 82.6578 30.9789C82.4529 29.5943 82.5426 17.4148 82.9266 15.9789C83.3362 14.4404 83.9251 13.1969 84.6931 12.2481C85.4868 11.2738 86.4213 10.5302 87.4965 10.0174ZM88.6486 15.1712C88.2646 15.5302 87.9702 15.9789 87.7654 16.5174C87.5606 17.0558 87.4325 28.3892 87.3813 28.9789C87.3301 29.543 87.3685 30.1199 87.4965 30.7097C87.6502 31.2738 87.8806 31.7866 88.1878 32.2481C88.4438 32.6328 88.9047 32.9533 89.5703 33.2097C90.236 33.4661 90.9272 33.6199 91.6441 33.6712C92.4633 33.7225 93.1802 33.5045 93.7946 33.0174C94.4091 32.5045 94.8699 31.8763 95.1772 31.1328C95.51 30.3892 95.6636 18.8122 95.638 17.9404C95.6124 17.0687 95.382 16.2738 94.9467 15.5558C94.6395 15.043 94.2043 14.6712 93.641 14.4404C93.1034 14.184 92.5273 14.0558 91.9129 14.0558C91.324 14.0302 90.7352 14.1199 90.1464 14.3251C89.5575 14.5046 89.0583 14.7866 88.6486 15.1712Z" fill="#D22F2F"/>
<path d="M81.3518 20.4407C81.5566 20.9279 81.5694 21.4663 81.3902 22.0561C81.2366 22.6458 80.9422 23.0304 80.5069 23.2099C80.2765 23.3125 79.9693 23.4022 79.5852 23.4791C79.2012 23.5304 78.7788 23.5817 78.3179 23.633C77.8827 23.6843 77.4475 23.7227 77.0122 23.7484C76.577 23.774 76.2058 23.7868 75.8986 23.7868C75.9242 24.5561 75.9498 25.3509 75.9754 26.1714C76.001 26.9663 76.0266 27.7484 76.0522 28.5176C76.0778 29.2868 76.0906 30.0304 76.0906 30.7484C76.0906 31.4407 76.0778 32.0689 76.0522 32.633C76.0522 33.0176 76.0522 33.4663 76.0522 33.9791C76.0522 34.4663 76.0138 34.9407 75.937 35.4022C75.8858 35.8637 75.7961 36.274 75.6681 36.633C75.5401 36.9663 75.3481 37.1843 75.0921 37.2868C74.2984 37.6202 73.5688 37.7099 72.9031 37.5561C72.2631 37.4279 71.8022 37.1586 71.5206 36.7484C71.3158 36.415 71.1622 36.0304 71.0598 35.5945C70.9574 35.133 70.8806 34.6714 70.8294 34.2099C70.8038 33.7227 70.7909 33.2612 70.7909 32.8253C70.8166 32.3637 70.8294 31.9663 70.8294 31.633C70.855 30.5561 70.8678 29.3381 70.8678 27.9791C70.8934 26.5945 70.9062 25.2099 70.9062 23.8253H70.3301C70.0229 23.8253 69.6261 23.8253 69.1396 23.8253C68.6788 23.7996 68.2051 23.7612 67.7187 23.7099C67.2579 23.633 66.8226 23.5432 66.413 23.4407C66.0034 23.3125 65.7089 23.133 65.5297 22.9022C65.2481 22.5689 65.0689 22.2099 64.9921 21.8253C64.9409 21.4407 64.9665 21.0817 65.0689 20.7484C65.1969 20.3894 65.3889 20.0817 65.6449 19.8253C65.901 19.5432 66.1954 19.3637 66.5282 19.2868C66.9891 19.1586 67.6419 19.0945 68.4868 19.0945C69.3316 19.0689 70.1253 19.0689 70.8678 19.0945C70.8422 18.8381 70.8294 18.5945 70.8294 18.3637C70.8294 18.1073 70.8166 17.8638 70.7909 17.633C70.7653 17.3253 70.7526 16.9407 70.7526 16.4791C70.7526 15.992 70.7782 15.5176 70.8294 15.0561C70.9062 14.5689 71.0214 14.1202 71.175 13.7099C71.3286 13.274 71.5462 12.9407 71.8278 12.7099C72.2119 12.4022 72.5959 12.2355 72.9799 12.2099C73.3896 12.1586 73.7608 12.2099 74.0936 12.3638C74.452 12.5176 74.7465 12.7484 74.9769 13.0561C75.2329 13.3381 75.4121 13.6586 75.5145 14.0176C75.5913 14.3253 75.6553 14.6971 75.7065 15.133C75.7577 15.5432 75.7833 15.9791 75.7833 16.4407C75.8089 16.9022 75.8218 17.3638 75.8218 17.8253C75.8218 18.2868 75.8218 18.7099 75.8218 19.0945H76.2058C76.5898 19.0945 77.0378 19.0817 77.5499 19.0561C78.0619 19.0304 78.5612 19.0432 79.0476 19.0945C79.5596 19.1458 80.0205 19.274 80.4301 19.4791C80.8397 19.6586 81.147 19.9791 81.3518 20.4407Z" fill="black"/>
<path d="M47.4031 23.7866C47.4031 23.4789 47.4031 23.1328 47.4031 22.7481C47.4031 22.3379 47.4159 21.9276 47.4415 21.5174C47.4671 21.0815 47.5055 20.6712 47.5567 20.2866C47.6336 19.8763 47.736 19.5174 47.864 19.2097C48.0688 18.7481 48.3888 18.4404 48.8241 18.2866C49.2593 18.1071 49.7329 18.0302 50.245 18.0558C50.7826 18.0558 51.205 18.1456 51.5123 18.3251C51.8195 18.5046 52.0499 18.7481 52.2035 19.0558C52.3571 19.3379 52.4467 19.6712 52.4723 20.0558C52.5235 20.4148 52.5491 20.7994 52.5491 21.2097C52.7796 20.7994 53.0868 20.4661 53.4708 20.2097C53.8805 19.9533 54.2901 19.7481 54.6997 19.5943C55.1094 19.4404 55.4806 19.3379 55.8134 19.2866C56.1462 19.2097 56.3382 19.1712 56.3894 19.1712C57.0295 19.1199 57.6055 19.1071 58.1176 19.1328C58.6552 19.1584 59.2441 19.2738 59.8841 19.4789C60.2938 19.6328 60.7162 19.8507 61.1514 20.1328C61.5867 20.3892 61.9707 20.6969 62.3035 21.0558C62.6363 21.4148 62.854 21.8122 62.9564 22.2481C63.0844 22.6584 63.0332 23.0943 62.8028 23.5558C62.4443 24.1969 62.0475 24.5174 61.6123 24.5174C61.177 24.4917 60.7034 24.4148 60.1913 24.2866C59.9097 24.2353 59.5769 24.1199 59.1929 23.9404C58.8088 23.761 58.476 23.6456 58.1944 23.5943C57.3239 23.4661 56.5559 23.5302 55.8902 23.7866C55.2246 24.043 54.6485 24.3507 54.1621 24.7097C53.5988 25.1456 53.1124 25.6456 52.7028 26.2097V31.7481C52.7028 32.4404 52.69 33.1584 52.6644 33.902C52.6644 34.6456 52.5619 35.3251 52.3571 35.9404C52.1779 36.5302 51.8579 37.0174 51.3971 37.402C50.9618 37.761 50.3218 37.9148 49.4769 37.8635C49.0161 37.8379 48.6064 37.6199 48.248 37.2097C47.8896 36.7738 47.672 36.3507 47.5952 35.9404C47.5439 35.5558 47.5055 35.0943 47.4799 34.5558C47.4543 34.0174 47.4287 33.4533 47.4031 32.8635C47.4031 32.2738 47.4031 31.684 47.4031 31.0943C47.4031 30.4789 47.4031 29.9148 47.4031 29.402V23.7866Z" fill="black"/>
<path d="M29.7687 21.2097C30.5368 20.8251 31.3432 20.5559 32.1881 20.402C33.033 20.2226 33.865 20.1841 34.6843 20.2867C35.5292 20.3636 36.3356 20.5815 37.1037 20.9405C37.8717 21.2738 38.5886 21.761 39.2542 22.402C39.9199 23.0687 40.4319 23.7995 40.7904 24.5944C41.1488 25.3892 41.4048 26.2738 41.5584 27.2482C41.6608 27.9149 41.8273 28.5302 42.0577 29.0943C42.2881 29.6585 42.5313 30.2226 42.7873 30.7867C43.069 31.3508 43.325 31.9149 43.5554 32.479C43.8114 33.0431 44.0162 33.6328 44.1698 34.2482C44.2978 34.8379 44.2466 35.4149 44.0162 35.979C43.8114 36.5174 43.3762 36.8508 42.7105 36.979C42.3265 37.0559 41.9553 37.0302 41.5968 36.902C41.264 36.7482 40.9568 36.5431 40.6752 36.2867C40.3935 36.0046 40.1375 35.7097 39.9071 35.402C39.7023 35.0687 39.5103 34.761 39.3311 34.479C38.7422 35.2482 38.1022 35.8508 37.4109 36.2867C36.7196 36.6969 35.8876 36.9661 34.9147 37.0943C34.0954 37.1969 33.3146 37.2226 32.5721 37.1713C31.8297 37.12 31.036 36.979 30.1911 36.7482C29.0902 36.4661 28.1814 35.979 27.4645 35.2867C26.7733 34.5687 26.2356 33.7482 25.8516 32.8251C25.4932 31.8764 25.3011 30.8636 25.2755 29.7867C25.2499 28.7097 25.3779 27.6456 25.6596 26.5943C26.018 25.2097 26.5556 24.0815 27.2725 23.2097C27.9894 22.3379 28.8214 21.6713 29.7687 21.2097ZM30.7288 25.7097C30.3703 26.0687 30.0887 26.4918 29.8839 26.979C29.6791 27.4661 29.5511 27.979 29.4999 28.5174C29.4743 29.0559 29.5255 29.5943 29.6535 30.1328C29.7815 30.6713 29.9863 31.1456 30.2679 31.5559C30.524 31.9149 30.9592 32.2226 31.5736 32.479C32.1881 32.7097 32.8281 32.8508 33.4938 32.902C34.2619 32.9533 34.9275 32.7482 35.4908 32.2867C36.0796 31.8251 36.5148 31.2482 36.7965 30.5559C37.1037 29.8379 37.2445 29.0815 37.2189 28.2867C37.1933 27.4661 36.9757 26.7226 36.566 26.0559C36.2588 25.5687 35.8492 25.2097 35.3371 24.979C34.8507 24.7482 34.3259 24.6328 33.7626 24.6328C33.1994 24.6072 32.6361 24.6969 32.0729 24.902C31.5352 25.0815 31.0872 25.3508 30.7288 25.7097Z" fill="black"/>
<path d="M21.9281 30.9406C22.261 31.6841 22.2738 32.4149 21.9665 33.1329C21.6593 33.8252 21.1729 34.4662 20.5072 35.0559C19.8416 35.6457 19.0735 36.1585 18.203 36.5944C17.3582 37.0303 16.5517 37.338 15.7837 37.5175C14.9388 37.697 14.0427 37.7739 13.0954 37.7482C12.1738 37.7482 11.2393 37.6329 10.292 37.4021C9.37034 37.197 8.46147 36.8893 7.5654 36.479C6.69493 36.0431 5.88847 35.5175 5.14601 34.9021C4.24994 34.1585 3.54588 33.2739 3.03384 32.2482C2.5474 31.197 2.18897 30.0816 1.95855 28.9021C1.72814 27.7226 1.60013 26.5431 1.57452 25.3636C1.57452 24.1585 1.61293 23.0303 1.68973 21.979C1.76654 21.0303 1.95855 20.0431 2.26578 19.0175C2.573 17.9918 2.99544 16.9918 3.53308 16.0175C4.09632 15.0175 4.76198 14.0944 5.53004 13.2483C6.3237 12.4021 7.24537 11.6841 8.29506 11.0944C9.08872 10.6329 9.97199 10.3252 10.9449 10.1713C11.9433 9.99184 12.9418 9.95338 13.9403 10.0559C14.9644 10.1329 15.9245 10.3508 16.8205 10.7098C17.7422 11.0431 18.5231 11.5047 19.1631 12.0944C19.5728 12.4534 19.9952 12.9534 20.4304 13.5944C20.8913 14.2354 21.2241 14.8893 21.4289 15.5559C21.6337 16.2226 21.6337 16.8508 21.4289 17.4406C21.2497 18.0047 20.7376 18.3893 19.8928 18.5944C19.5343 18.697 19.2143 18.7226 18.9327 18.6713C18.6511 18.5944 18.3951 18.479 18.1646 18.3252C17.9342 18.1457 17.7166 17.9406 17.5118 17.7098C17.307 17.479 17.115 17.2482 16.9357 17.0175C16.3213 16.2739 15.6044 15.7739 14.7852 15.5175C13.9659 15.2354 13.1466 15.1713 12.3274 15.3252C11.5337 15.4534 10.7785 15.7867 10.0616 16.3252C9.37034 16.838 8.8327 17.5047 8.44867 18.3252C8.03904 19.197 7.70621 20.1585 7.45019 21.2098C7.21977 22.2354 7.09176 23.2867 7.06616 24.3636C7.04056 25.4149 7.13016 26.4406 7.33498 27.4406C7.5654 28.4406 7.94943 29.3252 8.48707 30.0944C8.8967 30.7098 9.39594 31.2098 9.98479 31.5944C10.5992 31.979 11.2521 32.2482 11.9433 32.4021C12.6346 32.5559 13.3259 32.5816 14.0171 32.479C14.734 32.3765 15.4252 32.1457 16.0909 31.7867C16.2957 31.6841 16.5133 31.5431 16.7437 31.3636C16.9997 31.1585 17.2558 30.9534 17.5118 30.7482C17.7678 30.5431 18.0238 30.3508 18.2798 30.1713C18.5615 29.9918 18.8559 29.8636 19.1631 29.7867C19.624 29.6329 20.1232 29.6457 20.6608 29.8252C21.2241 30.0047 21.6465 30.3765 21.9281 30.9406Z" fill="#D22F2F"/>
<ellipse cx="93.4794" cy="25.7693" rx="3.48568" ry="4.23077" fill="black"/>
<ellipse cx="114.393" cy="25.7693" rx="3.48567" ry="4.23077" fill="black"/>
</svg>
